<?xml version="1.0" encoding="utf-8"?>
<!-- Generator: Adobe Illustrator 16.0.0, SVG Export Plug-In . SVG Version: 6.00 Build 0)  -->
<!DOCTYPE svg PUBLIC "-//W3C//DTD SVG 1.1//EN" "http://www.w3.org/Graphics/SVG/1.1/DTD/svg11.dtd">
<svg version="1.1" id="Ebene_1" xmlns="http://www.w3.org/2000/svg" xmlns:xlink="http://www.w3.org/1999/xlink" x="0px" y="0px"
	 width="474.259px" height="266.904px" viewBox="23.196 8.033 474.259 266.904"
	 enable-background="new 23.196 8.033 474.259 266.904" xml:space="preserve">
<g>
	<g>
		<g>
			<path fill="none" d="M264.258,112.968c-7.268,0.002-13.686,1.449-19.234,4.34c-5.566,2.896-8.934,6.572-10.121,11.05
				l-14.615,55.085c-1.387,5.225-0.205,9.465,3.562,12.721c3.754,3.262,9.432,4.889,17.035,4.889
				c8.592-0.002,15.338-1.777,20.242-5.322c4.904-3.539,8.123-8.205,9.658-13.982l13.156-49.217
				c1.186-4.472,0.492-8.388-2.086-11.742C279.275,117.431,273.837,112.962,264.258,112.968z"/>
			<path fill="none" d="M88.776,201.05c8.586-0.002,15.332-1.775,20.24-5.322c4.904-3.537,8.123-8.203,9.656-13.98l13.156-49.218
				c1.186-4.472,0.494-8.388-2.086-11.742c-2.576-3.355-8.018-7.824-17.598-7.818c-7.268,0.002-13.684,1.449-19.236,4.34
				c-5.561,2.896-8.932,6.572-10.119,11.05l-14.617,55.084c-1.385,5.225-0.203,9.465,3.562,12.721
				C75.493,199.423,81.171,201.05,88.776,201.05z"/>
			<path fill="none" d="M65.958,52.575h37.078L88.188,107.93c5.758-4.147,13.262-6.608,20.375-8.604
				c7.109-1.99,14.672-2.898,22.883-2.535c10.305,0.455,26.553,5.658,32.574,15.996c4.289,7.363,2.037,13.871-0.066,23.272
				l-10.344,40.932c-1.865,6.975-3.904,12.545-6.104,16.689c-2.211,4.154-4.918,7.646-8.135,10.469
				c-9.25,7.973-22.48,11.959-39.709,11.959c-23.807,0-35.947-13.287-35.947-13.287l-3.445,11.793H23.196L65.958,52.575z"/>
			<polygon points="468.482,98.812 431.103,98.812 377.097,190.585 374.103,163.158 367.07,98.812 359.046,98.812 332.716,98.812 
				351.976,214.558 394.585,214.558 468.73,98.812 			"/>
			<path d="M316.134,112.788c-0.357-0.613-0.754-1.203-1.182-1.779c-0.295-0.396-0.621-0.776-0.945-1.158
				c-0.131-0.153-0.25-0.312-0.385-0.461c-0.443-0.498-0.92-0.977-1.414-1.442c-0.018-0.019-0.031-0.035-0.053-0.054
				c-4.85-4.579-11.803-7.715-18.428-9.461c-0.131-0.034-0.254-0.065-0.385-0.1c-1.096-0.279-2.186-0.533-3.25-0.734
				c-0.016-0.006-0.039-0.01-0.059-0.014c-1.045-0.201-2.061-0.354-3.051-0.482c-0.215-0.026-0.424-0.051-0.633-0.075
				c-0.965-0.107-1.908-0.193-2.799-0.234c-8.209-0.363-15.767,0.545-22.876,2.535c-7.115,1.994-14.617,4.455-20.379,8.604
				l14.85-55.354H218.07l-42.765,162.04h37.076l3.445-11.793c0,0,12.138,13.287,35.944,13.287c17.231,0,30.464-3.986,39.712-11.959
				c3.217-2.822,5.924-6.312,8.133-10.467c2.197-4.146,4.238-9.717,6.105-16.691l9.982-39.489l0.361-1.441
				C318.164,126.659,320.421,120.151,316.134,112.788z M283.941,132.528l-13.156,49.217c-1.535,5.777-4.753,10.443-9.658,13.982
				c-4.904,3.545-11.65,5.32-20.242,5.322c-7.604,0-13.281-1.627-17.035-4.889c-3.768-3.256-4.949-7.496-3.562-12.721l14.615-55.085
				c1.188-4.478,4.555-8.154,10.121-11.05c5.549-2.891,11.967-4.338,19.234-4.34c9.58-0.006,15.019,4.463,17.599,7.818
				C284.433,124.142,285.126,128.058,283.941,132.528z"/>
		</g>
		<g>
			<path fill="#CC071E" d="M471.902,41.106c-1.004-0.451-2-0.916-3.008-1.357c-5.598-2.439-11.264-4.699-16.969-6.871
				c-10.787-4.111-21.742-7.791-32.859-10.916c-5.254-1.473-10.547-2.832-15.871-4.084c-15.717-3.695-31.703-6.365-47.859-7.99
				c-10.619-1.068-21.318-1.695-32.064-1.828c-4.061-0.047-8.119-0.037-12.191,0.053c-5.178,0.111-10.363,0.35-15.555,0.686
				c-13.152,0.85-26.348,2.418-39.538,4.76c-8.492,1.51-16.852,3.312-25.062,5.391c-3.268,0.826-6.516,1.703-9.734,2.617
				c-28.747,8.164-55.583,19.793-80.187,34.352c-6.83,4.039-13.488,8.303-19.963,12.785c6.844-3.771,13.859-7.297,21.018-10.615
				c25.922-12.008,53.871-20.992,83.542-26.449c0.717-0.133,1.426-0.272,2.139-0.401c1.018-0.181,2.037-0.353,3.053-0.523
				c22.281-3.758,44.562-5.33,66.625-4.943c4.672,0.082,9.338,0.222,13.988,0.48c3.766,0.209,7.523,0.477,11.27,0.799
				c7.621,0.66,15.205,1.558,22.746,2.676c3.752,0.558,7.486,1.193,11.215,1.867c6.699,1.203,13.355,2.594,19.967,4.152
				c6.41,1.516,12.781,3.191,19.1,5.037c2.494,0.725,4.977,1.473,7.453,2.256c1.672,0.525,3.34,1.074,5,1.623
				c0.639,0.207,1.268,0.436,1.902,0.647c9.676,3.236,19.217,6.867,28.611,10.849c4.832,2.051,9.641,4.16,14.387,6.399
				c1.742,0.822,3.465,1.687,5.189,2.535c8.098,3.982,16.049,8.267,23.871,12.791l15.338-24.199
				C489.08,49.19,480.57,44.976,471.902,41.106z"/>
		</g>
	</g>
	<g>
		<path fill="#707173" d="M49.028,249.562h-0.094l-8.168,24.945h-4.248l-7.795-24.945H28.63v24.945h-5.415v-29.918h8.915
			l6.722,22.332h0.094l6.861-22.332h8.635v29.918h-5.414V249.562z"/>
		<path fill="#707173" d="M77.644,267.306H66.442l-2.334,7.201h-5.975l10.922-29.918h6.535l10.502,29.918h-6.161L77.644,267.306z
			 M76.383,263.107l-4.107-13.975h-0.093l-4.481,13.975H76.383z"/>
		<path fill="#707173" d="M89.828,244.589h5.975v12.689h0.14l9.289-12.689h6.861l-11.062,14.104l11.949,15.814h-7.234l-9.803-14.059
			h-0.14v14.059h-5.975V244.589L89.828,244.589z"/>
		<path fill="#707173" d="M116.669,244.589h5.975v29.918h-5.975V244.589z"/>
		<path fill="#707173" d="M129.553,244.589h7.095l10.829,23.488h0.094v-23.488h5.414v29.918h-7.142l-10.782-23.316h-0.093v23.316
			h-5.415V244.589z"/>
		<path fill="#707173" d="M172.824,257.75h10.55v15.645c-1.681,0.814-4.575,1.543-8.822,1.543c-10.456,0-16.01-6.516-16.01-15.389
			c0-8.871,5.554-15.387,16.01-15.387c3.734,0,6.675,0.77,7.935,1.285l-0.326,4.93c-1.914-1.072-4.527-1.844-7.515-1.844
			c-6.349,0-9.756,4.801-9.756,11.016c0,6.73,3.314,11.018,9.429,11.018c1.4,0,2.66-0.258,3.454-0.559v-8.059h-4.948L172.824,257.75
			L172.824,257.75z"/>
		<path fill="#707173" d="M196.589,244.589h6.441l6.582,23.061h0.093l6.769-23.061h6.161l-9.942,29.918h-6.301L196.589,244.589z"/>
		<path fill="#707173" d="M226.511,244.589h5.975v29.918h-5.975V244.589z"/>
		<path fill="#707173" d="M239.021,268.722c1.167,0.686,3.734,1.844,6.908,1.844c2.613,0,4.947-1.33,4.947-4.33
			c0-2.143-1.354-3.086-4.247-4.543l-3.034-1.543c-3.221-1.629-5.321-3.986-5.321-7.844c0-5.357,4.808-8.145,10.269-8.145
			c3.454,0,5.882,0.812,6.815,1.072l-0.28,4.586c-1.447-0.516-3.36-1.287-6.114-1.287c-2.987,0-4.528,1.459-4.528,3.516
			c0,2.229,1.634,3.086,3.454,4.029l3.501,1.799c3.827,1.973,5.647,3.859,5.647,8.059c0,6.086-4.714,9.002-10.922,9.002
			c-3.268,0-5.788-0.43-7.422-1.328L239.021,268.722z"/>
		<path fill="#707173" d="M262.828,244.589h5.974v29.918h-5.974V244.589z"/>
		<path fill="#707173" d="M287.427,244.162c6.77,0,12.979,4.629,12.979,15.387c0,10.76-6.209,15.389-12.979,15.389
			c-6.768,0-12.975-4.629-12.975-15.389C274.453,248.791,280.66,244.162,287.427,244.162z M287.427,270.736
			c3.781,0,6.816-2.957,6.816-11.188s-3.035-11.188-6.816-11.188c-3.779,0-6.812,2.957-6.812,11.188
			S283.648,270.736,287.427,270.736z"/>
		<path fill="#707173" d="M305.96,244.589h7.096l10.828,23.488h0.094v-23.488h5.414v29.918h-7.141l-10.783-23.316h-0.092v23.316
			h-5.416V244.589z"/>
		<path fill="#707173" d="M335.837,268.722c1.166,0.686,3.734,1.844,6.908,1.844c2.613,0,4.947-1.33,4.947-4.33
			c0-2.143-1.355-3.086-4.248-4.543l-3.033-1.543c-3.223-1.629-5.322-3.986-5.322-7.844c0-5.357,4.809-8.145,10.27-8.145
			c3.453,0,5.883,0.812,6.814,1.072l-0.279,4.586c-1.447-0.516-3.359-1.287-6.113-1.287c-2.988,0-4.529,1.459-4.529,3.516
			c0,2.229,1.635,3.086,3.455,4.029l3.5,1.799c3.828,1.973,5.646,3.859,5.646,8.059c0,6.086-4.713,9.002-10.922,9.002
			c-3.268,0-5.787-0.43-7.422-1.328L335.837,268.722z"/>
		<path fill="#707173" d="M385.226,249.992h-0.094l-5.135,24.516h-7.047l-6.582-29.918h5.602l4.574,23.061h0.092l4.902-23.061h7.281
			l4.854,23.061h0.094l4.762-23.061h5.414l-6.723,29.918h-7.141L385.226,249.992z"/>
		<path fill="#707173" d="M418.89,244.162c6.77,0,12.979,4.629,12.979,15.387c0,10.76-6.209,15.389-12.979,15.389
			c-6.768,0-12.975-4.629-12.975-15.389C405.916,248.791,412.123,244.162,418.89,244.162z M418.89,270.736
			c3.781,0,6.816-2.957,6.816-11.188s-3.035-11.188-6.816-11.188c-3.779,0-6.812,2.957-6.812,11.188S415.111,270.736,418.89,270.736
			z"/>
		<path fill="#707173" d="M437.191,244.589h10.176c5.787,0,9.709,2.4,9.709,7.887c0,3.9-2.662,6.518-6.303,7.029v0.129
			c1.215,0.172,2.566,0.688,3.594,3.473l4.248,11.4h-6.348l-3.221-9.729c-0.795-2.357-2.334-3.129-4.529-3.129h-1.354v12.857h-5.975
			v-29.918H437.191z M445.593,257.621c3.174,0,5.32-1.5,5.32-4.543c0-3.432-1.961-4.287-5.32-4.287h-2.428v8.83H445.593
			L445.593,257.621z"/>
		<path fill="#707173" d="M463.425,244.589h5.975v12.689h0.141l9.289-12.689h6.861l-11.062,14.104l11.949,15.814h-7.234
			l-9.803-14.059H469.4v14.059h-5.975V244.589z"/>
		<path fill="#707173" d="M490.033,268.935h5.6v5.572h-5.6V268.935z"/>
	</g>
</g>
<path d="M63.716,202.822c0,0,12.141,13.287,35.947,13.287c17.229,0,30.459-3.986,39.709-11.959
	c3.217-2.822,5.924-6.312,8.135-10.467c2.199-4.146,4.238-9.717,6.104-16.691l10.344-40.931c2.104-9.401,4.355-15.909,0.066-23.272
	c-6.021-10.338-22.27-15.541-32.574-15.996c-8.211-0.363-15.773,0.545-22.883,2.535c-7.113,1.994-14.617,4.455-20.375,8.604
	l14.848-55.354H65.959L23.197,214.617h37.074L63.716,202.822z M68.173,183.441l14.617-55.084c1.188-4.478,4.559-8.154,10.119-11.05
	c5.553-2.891,11.969-4.338,19.236-4.34c9.58-0.006,15.021,4.463,17.598,7.818c2.58,3.354,3.271,7.271,2.086,11.742l-13.156,49.218
	c-1.533,5.777-4.752,10.441-9.656,13.98c-4.908,3.547-11.654,5.32-20.24,5.322c-7.605,0-13.283-1.627-17.041-4.889
	C67.97,192.906,66.788,188.666,68.173,183.441z"/>
</svg>
